<?xml version="1.0" encoding="utf-8"?>
<!-- Generator: Adobe Illustrator 19.0.0, SVG Export Plug-In . SVG Version: 6.00 Build 0)  -->
<svg version="1.1" id="Layer_1" xmlns="http://www.w3.org/2000/svg" xmlns:xlink="http://www.w3.org/1999/xlink" x="0px" y="0px"
	 viewBox="0 0 96 96" style="enable-background:new 0 0 96 96;" xml:space="preserve">
<style type="text/css">
	.st0{fill:#333333;}
</style>
<g id="XMLID_2_">
	<path id="XMLID_7_" class="st0" d="M51.9,64.6v-5.8c0-0.3-0.1-0.5-0.3-0.7c-0.2-0.2-0.4-0.3-0.7-0.3h-5.9c-0.3,0-0.5,0.1-0.7,0.3
		c-0.2,0.2-0.3,0.4-0.3,0.7v5.8c0,0.3,0.1,0.5,0.3,0.7c0.2,0.2,0.4,0.3,0.7,0.3h5.9c0.3,0,0.5-0.1,0.7-0.3
		C51.8,65.2,51.9,64.9,51.9,64.6z M51.9,53.2l0.6-14.1c0-0.2-0.1-0.4-0.3-0.6c-0.3-0.2-0.5-0.3-0.7-0.3h-6.7c-0.2,0-0.5,0.1-0.7,0.3
		c-0.2,0.1-0.3,0.4-0.3,0.6l0.5,14c0,0.2,0.1,0.4,0.3,0.5c0.2,0.1,0.4,0.2,0.7,0.2h5.7c0.3,0,0.5-0.1,0.7-0.2S51.8,53.4,51.9,53.2z
		 M51.4,24.5L75,67.7c0.7,1.3,0.7,2.6-0.1,3.9c-0.3,0.6-0.8,1.1-1.4,1.4c-0.6,0.3-1.3,0.5-1.9,0.5H24.5c-0.7,0-1.3-0.2-1.9-0.5
		s-1.1-0.8-1.4-1.4c-0.8-1.3-0.8-2.6-0.1-3.9l23.5-43.2c0.3-0.6,0.8-1.1,1.4-1.5c0.6-0.4,1.3-0.6,2-0.6s1.4,0.2,2,0.6
		C50.6,23.4,51.1,23.9,51.4,24.5z"/>
</g>
</svg>
