<?xml version="1.0" encoding="utf-8"?>
<!-- Generator: Adobe Illustrator 22.0.0, SVG Export Plug-In . SVG Version: 6.00 Build 0)  -->
<svg version="1.1" id="Layer_1" xmlns="http://www.w3.org/2000/svg" xmlns:xlink="http://www.w3.org/1999/xlink" x="0px" y="0px"
	 viewBox="0 0 60.5 89.7" style="enable-background:new 0 0 60.5 89.7;" xml:space="preserve">
<style type="text/css">
	.st0{display:none;}
	.st1{display:inline;}
	.st2{fill:#FFFFFF;}
</style>
<g class="st0">
	<g class="st1">
		<path d="M26.8,68.3c2,2,5.5,2,7.5,0c8.2-8.2,16.3-16.5,24.5-24.7c4.8-4.9-2.7-12.4-7.5-7.5c-5.1,5.2-10.2,10.3-15.4,15.5
			c0-15.6,0-31.3,0-46.9c0-6.8-10.6-6.9-10.6,0c0,15.6,0,31.3,0,46.9C20.2,46.4,15,41.2,9.9,36.1c-4.8-4.9-12.4,2.7-7.5,7.5
			C10.5,51.8,18.7,60.1,26.8,68.3z"/>
		<path d="M63.9,79c-22.2,0-44.4,0-66.6,0c-6.8,0-6.9,10.6,0,10.6c22.2,0,44.4,0,66.6,0C70.8,89.6,70.8,79,63.9,79z"/>
	</g>
</g>
<g>
	<path class="st2" d="M60.4,37.5L32,68.7c-0.7,0.8-2,0.8-2.8,0L0.8,37.5c-1.1-1.2-0.2-3.1,1.4-3.1h13.9v-33c0-1,0.8-1.8,1.8-1.8
		h25.2c1,0,1.8,0.8,1.8,1.8v33h13.9C60.6,34.4,61.4,36.3,60.4,37.5z M60.8,88.1v-10c0-0.8-0.7-1.5-1.5-1.5H1.9
		c-0.8,0-1.5,0.7-1.5,1.5v10c0,0.8,0.7,1.5,1.5,1.5h57.5C60.2,89.6,60.8,89,60.8,88.1z"/>
</g>
</svg>
