<?xml version="1.0" encoding="UTF-8"?>
<svg width="113px" height="113px" viewBox="0 0 113 113" version="1.1" xmlns="http://www.w3.org/2000/svg" xmlns:xlink="http://www.w3.org/1999/xlink">
    <!-- Generator: Sketch 64 (93537) - https://sketch.com -->
    <title>social-mail</title>
    <desc>Created with Sketch.</desc>
    <g id="social-mail" stroke="none" stroke-width="1" fill="none" fill-rule="evenodd">
        <g id="flaticon1585057834-svg" transform="translate(22.397019, 30.500000)" fill="#000000" fill-rule="nonzero">
            <path d="M59.7929539,0.105691057 L8.32845528,0.105691057 C3.73441734,0.105691057 0,3.8401084 0,8.43414634 L0,43.6081301 C0,48.202168 3.73441734,51.9365854 8.32845528,51.9365854 L59.7788618,51.9365854 C64.3728997,51.9365854 68.1073568,48.202168 68.1073568,43.6081301 L68.1073568,8.44823848 C68.1214092,3.85420054 64.3869919,0.105691057 59.7929539,0.105691057 Z M64.3165312,43.6081301 C64.3165312,46.102439 62.2872629,48.1317073 59.7929539,48.1317073 L8.32845528,48.1317073 C5.83414634,48.1317073 3.80487805,46.102439 3.80487805,43.6081301 L3.80487805,8.44823848 C3.80487805,5.95392954 5.83414634,3.92466125 8.32845528,3.92466125 L59.7788618,3.92466125 C62.2731707,3.92466125 64.302439,5.95392954 64.302439,8.44823848 L64.302439,43.6081301 L64.3165312,43.6081301 Z" id="Shape"></path>
            <path d="M42.9528455,25.5842818 L59.6097561,10.6466125 C60.3848238,9.94200542 60.4552846,8.74417344 59.7506775,7.95501355 C59.0460705,7.1799458 57.8482385,7.10948509 57.0590786,7.81409214 L34.0888889,28.4308943 L29.6075881,24.4287263 C29.5934959,24.4146341 29.5794038,24.400542 29.5794038,24.3864499 C29.4807588,24.2878049 29.3821138,24.203252 29.2693767,24.1186992 L11.0341463,7.8 C10.2449864,7.09539295 9.04715447,7.16585366 8.34254743,7.95501355 C7.63794038,8.74417344 7.70840108,9.94200542 8.49756098,10.6466125 L25.3517615,25.7111111 L8.56802168,41.4238482 C7.80704607,42.1425474 7.76476965,43.3403794 8.48346883,44.1154472 C8.86395664,44.5100271 9.37127371,44.7214092 9.87859079,44.7214092 C10.3436314,44.7214092 10.8086721,44.5523035 11.1750678,44.2140921 L28.2124661,28.2758808 L32.8346883,32.404878 C33.201084,32.7289973 33.6520325,32.8840108 34.102981,32.8840108 C34.5539295,32.8840108 35.0189702,32.7149051 35.3712737,32.3907859 L40.1203252,28.1349593 L57.0590786,44.2281843 C57.4254743,44.5804878 57.904607,44.7495935 58.3696477,44.7495935 C58.8769648,44.7495935 59.3701897,44.5523035 59.7506775,44.1577236 C60.4693767,43.396748 60.4411924,42.1848238 59.6802168,41.4661247 L42.9528455,25.5842818 Z" id="Path"></path>
        </g>
    </g>
</svg>