<?xml version="1.0" encoding="UTF-8"?>
<svg width="113px" height="113px" viewBox="0 0 113 113" version="1.1" xmlns="http://www.w3.org/2000/svg" xmlns:xlink="http://www.w3.org/1999/xlink">
    <!-- Generator: Sketch 64 (93537) - https://sketch.com -->
    <title>social-whatsapp</title>
    <desc>Created with Sketch.</desc>
    <g id="social-whatsapp" stroke="none" stroke-width="1" fill="none" fill-rule="evenodd">
        <g id="flaticon1585147973-svg" transform="translate(21.000000, 21.000000)" fill-rule="nonzero">
            <path d="M0,71 L6.106,52.6832241 C3.0077069,47.472069 1.22413793,41.3905517 1.22413793,34.887931 C1.22413793,15.62 16.8441379,0 36.112069,0 C55.38,0 71,15.62 71,34.887931 C71,54.1558621 55.38,69.7758621 36.112069,69.7758621 C30.2496724,69.7758621 24.7288103,68.3228103 19.88,65.7692586 L0,71 Z" id="Path" fill="#2CB742"></path>
            <path d="M58.370569,46.4988793 C56.7596034,43.4544483 50.8188621,39.973 50.8188621,39.973 C49.4747586,39.2066897 47.8527759,39.121 47.0864655,40.4871379 C47.0864655,40.4871379 45.156,42.8019828 44.6651207,43.1349483 C42.4225,44.6541034 40.3451379,44.5953448 38.2481897,42.4983966 L33.3748966,37.6251034 L28.5016034,32.7518103 C26.4046552,30.6548621 26.3458966,28.5775 27.8650517,26.3348793 C28.1980172,25.844 30.5128621,23.9135345 30.5128621,23.9135345 C31.879,23.146 31.7933103,21.5252414 31.027,20.1811379 C31.027,20.1811379 27.5455517,14.2403966 24.5011207,12.629431 C23.2059828,11.9439138 21.6158276,12.1838448 20.5802069,13.2194655 L18.4281724,15.3715 C11.6011552,22.1985172 14.9626379,29.9056897 21.7896552,36.7327069 L28.0290862,42.9721379 L34.2685172,49.211569 C41.0955345,56.0385862 48.8027069,59.400069 55.6297241,52.5730517 L57.7817586,50.4210172 C58.8173793,49.3829483 59.0560862,47.7927931 58.370569,46.4988793 Z" id="Path" fill="#FFFFFF"></path>
        </g>
    </g>
</svg>