<?xml version="1.0" encoding="UTF-8"?>
<svg width="113px" height="113px" viewBox="0 0 113 113" version="1.1" xmlns="http://www.w3.org/2000/svg" xmlns:xlink="http://www.w3.org/1999/xlink">
    <!-- Generator: Sketch 64 (93537) - https://sketch.com -->
    <title>social-twitter</title>
    <desc>Created with Sketch.</desc>
    <g id="social-twitter" stroke="none" stroke-width="1" fill="none" fill-rule="evenodd">
        <g id="flaticon1585057746-svg" transform="translate(20.813824, 28.906250)" fill="#03A9F4" fill-rule="nonzero">
            <path d="M71.3846154,6.86630769 C68.73,8.03076923 65.9013846,8.80261538 62.9523077,9.17738462 C65.9861538,7.366 68.3016923,4.51953846 69.3903077,1.08861538 C66.5616923,2.77507692 63.4386154,3.96630769 60.1103077,4.63107692 C57.4244615,1.77123077 53.5964615,0 49.4204615,0 C41.3183077,0 34.7955385,6.57630769 34.7955385,14.6383077 C34.7955385,15.7983077 34.8936923,16.9136923 35.1346154,17.9755385 C22.968,17.3821538 12.2023077,11.5509231 4.97015385,2.668 C3.70753846,4.85861538 2.96692308,7.366 2.96692308,10.0652308 C2.96692308,15.1335385 5.57692308,19.6263077 9.46738462,22.2273846 C7.11615385,22.1827692 4.80953846,21.5001538 2.85538462,20.4249231 C2.85538462,20.4695385 2.85538462,20.5275385 2.85538462,20.5855385 C2.85538462,27.6972308 7.92815385,33.6043077 14.5803077,34.9650769 C13.3890769,35.2907692 12.0907692,35.4469231 10.7433846,35.4469231 C9.80646154,35.4469231 8.86061538,35.3933846 7.97276923,35.1970769 C9.86892308,40.9926154 15.2495385,45.2533846 21.6473846,45.3916923 C16.6683077,49.2866154 10.3463077,51.6333846 3.50230769,51.6333846 C2.30215385,51.6333846 1.15107692,51.5798462 -7.92528436e-15,51.4326154 C6.48261538,55.6130769 14.1653846,58 22.4504615,58 C49.3803077,58 64.1033846,35.6923077 64.1033846,16.356 C64.1033846,15.7090769 64.0810769,15.0844615 64.0498462,14.4643077 C66.9543077,12.4030769 69.3947692,9.82876923 71.3846154,6.86630769 Z" id="Path"></path>
        </g>
    </g>
</svg>