<?xml version="1.0" standalone="no"?>
<!DOCTYPE svg PUBLIC "-//W3C//DTD SVG 20010904//EN"
 "http://www.w3.org/TR/2001/REC-SVG-20010904/DTD/svg10.dtd">
<svg version="1.0" xmlns="http://www.w3.org/2000/svg"
 width="512.000000pt" height="512.000000pt" viewBox="0 0 512.000000 512.000000"
 preserveAspectRatio="xMidYMid meet">
<metadata>
Created by potrace 1.11, written by Peter Selinger 2001-2013
</metadata>
<g transform="translate(0.000000,512.000000) scale(0.100000,-0.100000)"
fill="#000000" stroke="none">
<path d="M2375 4888 c-192 -51 -377 -180 -486 -339 -40 -59 -83 -146 -94 -191
l-7 -26 -67 34 c-85 43 -186 65 -299 64 -107 0 -131 -3 -209 -23 -248 -64
-466 -261 -564 -510 -75 -189 -76 -363 -5 -540 16 -38 26 -70 24 -71 -1 -1
-23 -10 -48 -19 -125 -46 -271 -165 -344 -280 -140 -220 -156 -548 -39 -782
79 -156 218 -290 380 -366 40 -19 73 -40 73 -47 0 -7 -7 -27 -16 -43 -29 -56
-54 -182 -55 -269 -1 -334 201 -633 512 -755 197 -78 381 -73 578 16 35 16 66
27 69 24 3 -3 16 -34 28 -70 62 -177 205 -330 384 -413 160 -73 342 -89 549
-47 74 15 199 66 285 117 73 44 195 172 233 243 17 33 38 86 46 118 9 33 17
60 19 62 2 2 30 -9 63 -26 212 -104 439 -99 668 16 140 71 240 152 308 252 40
57 84 163 94 224 4 24 9 53 12 64 3 11 6 83 7 160 2 133 -9 236 -32 296 -10
25 -8 28 31 45 60 26 164 94 220 144 215 191 328 543 257 799 -63 224 -211
415 -391 505 -50 26 -99 46 -109 46 -30 0 -31 14 -6 77 105 267 42 581 -157
786 -113 117 -246 189 -412 222 -55 12 -219 13 -285 3 -70 -10 -162 -39 -223
-70 -22 -11 -40 -18 -41 -16 -1 2 -10 30 -20 63 -75 247 -297 452 -569 524
-95 26 -263 25 -362 -1z m242 -292 c177 -21 347 -168 405 -351 16 -48 18 -168
4 -227 -17 -74 -67 -163 -131 -232 -117 -127 -112 -236 13 -294 106 -50 299
-31 330 31 6 12 13 54 17 94 13 152 64 272 153 355 86 81 181 116 311 116 274
0 462 -174 462 -428 0 -141 -44 -253 -137 -345 -92 -90 -196 -131 -355 -138
-131 -7 -179 -41 -179 -127 1 -118 107 -224 225 -223 63 1 111 21 183 77 164
128 336 159 484 88 165 -79 280 -285 264 -471 -21 -246 -237 -473 -449 -472
-71 0 -151 40 -323 161 -139 98 -180 120 -234 124 -62 5 -108 -13 -155 -59
-72 -70 -94 -168 -55 -245 38 -75 99 -104 302 -145 193 -39 245 -57 306 -111
98 -86 134 -180 127 -329 -7 -163 -72 -295 -185 -377 -19 -14 -46 -29 -60 -33
-14 -4 -29 -11 -35 -15 -31 -23 -128 -44 -205 -44 -76 -1 -93 3 -154 32 -155
73 -253 236 -285 475 -6 43 -18 91 -26 107 -21 40 -77 66 -147 69 -62 3 -171
-24 -189 -45 -6 -8 -15 -14 -20 -14 -15 0 -70 -53 -85 -82 -26 -50 -12 -126
32 -173 75 -81 136 -181 169 -278 83 -247 -31 -455 -291 -530 -65 -19 -236
-20 -321 -2 -102 22 -241 133 -288 230 -64 132 -34 257 105 445 72 96 90 134
90 187 -1 112 -123 225 -258 239 -45 5 -66 2 -92 -11 -65 -34 -68 -40 -85
-200 -23 -210 -145 -374 -319 -427 -57 -17 -84 -20 -160 -15 -50 3 -111 14
-136 23 -226 88 -368 339 -313 554 53 206 248 345 512 364 73 5 107 24 134 77
17 32 19 96 5 150 -10 40 -62 99 -106 119 -86 41 -176 17 -309 -82 -139 -103
-257 -131 -386 -94 -198 58 -344 318 -310 552 30 205 183 347 399 371 100 10
202 -26 359 -128 129 -83 188 -100 246 -68 28 14 66 70 77 112 17 60 8 160
-17 201 -26 42 -38 46 -139 51 -42 2 -88 6 -102 9 -14 3 -38 9 -55 12 -53 11
-152 64 -193 103 -91 86 -134 191 -131 316 6 246 165 436 405 484 131 27 264
2 332 -62 54 -50 116 -168 142 -267 24 -96 39 -159 43 -181 15 -78 63 -138
133 -165 90 -34 229 3 310 84 114 114 81 255 -104 442 -91 92 -106 121 -106
204 1 202 201 402 434 435 30 4 57 6 60 5 3 -1 28 -4 57 -8z"/>
<path d="M2479 3188 c-132 -17 -264 -83 -362 -182 -391 -395 -124 -1061 433
-1080 108 -4 260 35 332 86 14 10 31 18 36 18 20 0 158 147 190 202 18 31 45
89 60 130 22 64 26 89 26 198 0 110 -3 134 -26 198 -45 126 -130 242 -228 315
-34 25 -152 87 -174 91 -6 2 -38 8 -70 15 -73 16 -143 19 -217 9z"/>
</g>
</svg>
