<?xml version="1.0" standalone="no"?>
<!DOCTYPE svg PUBLIC "-//W3C//DTD SVG 20010904//EN"
 "http://www.w3.org/TR/2001/REC-SVG-20010904/DTD/svg10.dtd">
<svg version="1.0" xmlns="http://www.w3.org/2000/svg"
 width="512.000000pt" height="512.000000pt" viewBox="0 0 512.000000 512.000000"
 preserveAspectRatio="xMidYMid meet">
<metadata>
Created by potrace 1.11, written by Peter Selinger 2001-2013
</metadata>
<g transform="translate(0.000000,512.000000) scale(0.100000,-0.100000)"
fill="#000000" stroke="none">
<path d="M2120 4959 c-151 -30 -285 -161 -326 -319 -64 -250 114 -507 371
-536 27 -3 51 -6 52 -7 2 -3 63 -351 63 -364 0 -6 -37 -22 -82 -36 -104 -33
-223 -90 -311 -151 -80 -55 -108 -79 -197 -170 l-67 -69 -136 97 c-130 92
-136 98 -127 122 15 38 12 124 -6 184 -22 74 -107 159 -184 185 -213 71 -424
-93 -404 -313 10 -109 71 -197 171 -247 49 -24 70 -29 131 -28 63 0 83 5 140
34 l67 35 120 -84 c66 -46 126 -89 132 -96 10 -9 5 -27 -26 -86 -42 -81 -98
-232 -107 -288 -3 -19 -8 -44 -10 -56 -13 -59 -17 -111 -16 -218 l0 -118 -36
-9 c-21 -5 -69 -15 -109 -21 -85 -14 -89 -15 -128 -23 -95 -20 -100 -19 -119
22 -66 151 -239 255 -408 247 -239 -11 -427 -212 -417 -445 18 -381 472 -561
739 -292 76 77 122 178 128 282 2 29 -6 26 152 53 14 3 52 10 85 15 33 6 79
14 101 17 l41 5 12 -48 c22 -84 88 -230 144 -317 70 -107 85 -125 180 -218
l78 -77 -93 -135 c-86 -123 -95 -134 -118 -128 -14 4 -59 7 -100 7 -64 0 -83
-5 -128 -30 -65 -35 -107 -81 -140 -153 -21 -47 -24 -65 -20 -131 7 -119 68
-210 174 -260 70 -34 179 -35 251 -2 62 27 126 94 156 159 38 87 26 214 -28
287 -26 35 -32 21 88 192 l78 111 87 -44 c80 -41 212 -90 272 -100 14 -3 32
-7 40 -10 31 -11 130 -18 248 -18 77 0 122 -4 123 -11 1 -12 4 -33 18 -105 23
-116 41 -223 41 -239 0 -9 -22 -28 -55 -45 -218 -114 -295 -402 -161 -609 199
-310 655 -257 777 89 66 186 -12 399 -186 509 -57 36 -74 42 -165 59 l-64 11
-28 160 c-15 88 -29 171 -30 184 -3 21 5 26 78 51 190 63 343 157 482 296 52
52 96 94 98 94 2 0 28 -17 57 -37 28 -20 87 -61 130 -91 76 -53 78 -55 70 -86
-24 -100 3 -211 71 -284 64 -70 125 -97 221 -97 68 0 89 4 137 28 61 30 105
74 140 140 33 61 33 203 0 264 -35 66 -79 110 -140 140 -48 24 -70 28 -137 28
-79 0 -108 -9 -183 -56 -16 -10 -29 -5 -93 40 -41 28 -100 70 -131 92 -32 22
-58 44 -58 49 0 5 16 38 35 73 55 100 107 266 123 392 4 28 6 105 6 172 l-1
121 61 12 c152 28 282 50 296 50 8 0 28 -25 43 -54 95 -182 321 -272 516 -206
349 117 406 580 96 778 -132 84 -312 87 -452 6 -102 -59 -186 -183 -206 -306
l-13 -73 -159 -27 c-88 -15 -171 -29 -184 -30 -22 -3 -27 5 -56 87 -17 50 -42
113 -54 140 -44 95 -151 243 -242 334 -50 50 -89 94 -87 99 1 4 43 65 93 135
83 119 91 128 115 120 53 -16 163 -7 212 16 230 110 235 437 9 551 -108 54
-257 31 -343 -53 -66 -64 -92 -126 -92 -222 0 -72 3 -86 33 -143 l34 -63 -20
-27 c-23 -31 -115 -162 -146 -208 l-21 -32 -76 38 c-187 96 -352 134 -568 133
-77 -1 -115 3 -117 11 -3 6 -16 81 -30 166 -15 85 -29 164 -31 175 -4 17 4 25
43 43 166 75 271 285 233 467 -51 243 -275 392 -520 344z m206 -131 c131 -56
218 -198 199 -326 -15 -108 -80 -198 -178 -249 -70 -36 -187 -38 -260 -3 -61
29 -134 102 -161 160 -27 60 -28 177 -3 239 37 91 116 162 205 188 53 15 154
11 198 -9z m1362 -609 c160 -78 118 -319 -60 -343 -154 -21 -259 153 -171 285
49 74 147 98 231 58z m-2512 -465 c56 -45 76 -88 72 -156 -12 -177 -232 -236
-332 -89 -59 88 -27 213 66 260 62 32 144 26 194 -15z m1569 -158 c150 -33
269 -81 380 -151 77 -50 89 -59 171 -140 257 -252 365 -605 294 -956 -22 -105
-26 -119 -83 -243 -81 -177 -228 -340 -399 -444 -539 -329 -1242 -111 -1504
465 -32 70 -70 188 -80 252 -13 76 -12 291 1 361 85 440 422 776 858 855 72
13 303 13 362 1z m1897 -392 c64 -21 141 -92 175 -161 39 -81 39 -185 0 -265
-97 -198 -361 -240 -508 -81 -61 66 -83 123 -83 213 0 97 28 162 95 225 93 87
198 109 321 69z m-3957 -695 c116 -40 198 -143 209 -263 13 -134 -58 -257
-182 -318 -65 -31 -187 -32 -254 -1 -60 28 -134 101 -161 161 -31 68 -30 190
1 254 42 84 134 161 211 175 14 2 27 6 29 8 8 8 110 -3 147 -16z m3475 -843
c141 -93 80 -321 -89 -331 -104 -7 -186 64 -195 169 -7 75 47 158 119 185 45
16 122 5 165 -23z m-2546 -447 c97 -66 108 -207 22 -286 -143 -132 -366 24
-291 204 21 50 42 72 90 95 54 25 131 20 179 -13z m1424 -349 c67 -29 141
-108 166 -179 95 -266 -183 -510 -437 -384 -97 49 -169 166 -169 278 0 109 69
225 164 276 78 42 190 46 276 9z"/>
<path d="M2459 3189 c-63 -13 -88 -74 -48 -120 18 -21 27 -23 92 -21 123 4
160 29 149 100 -7 44 -91 61 -193 41z"/>
<path d="M3038 2879 c-44 -17 -49 -53 -19 -137 33 -89 52 -112 91 -112 43 0
73 36 67 80 -11 81 -48 157 -82 170 -15 6 -27 10 -28 9 -1 0 -14 -5 -29 -10z"/>
<path d="M2002 2853 c-24 -21 -70 -148 -64 -180 5 -34 51 -66 82 -58 38 10 45
20 74 99 31 89 32 106 6 134 -25 27 -70 29 -98 5z"/>
<path d="M2868 2173 c-80 -61 -96 -88 -77 -128 20 -41 56 -52 101 -31 47 22
118 84 128 110 16 43 -25 96 -75 96 -8 0 -42 -21 -77 -47z"/>
<path d="M2135 2185 c-36 -35 -32 -71 13 -112 54 -50 114 -83 141 -78 41 8 62
35 59 74 -3 31 -12 42 -73 88 -78 59 -105 64 -140 28z"/>
</g>
</svg>
