<?xml version="1.0" standalone="no"?>
<!DOCTYPE svg PUBLIC "-//W3C//DTD SVG 20010904//EN"
 "http://www.w3.org/TR/2001/REC-SVG-20010904/DTD/svg10.dtd">
<svg version="1.0" xmlns="http://www.w3.org/2000/svg"
 width="512.000000pt" height="512.000000pt" viewBox="0 0 512.000000 512.000000"
 preserveAspectRatio="xMidYMid meet">
<metadata>
Created by potrace 1.11, written by Peter Selinger 2001-2013
</metadata>
<g transform="translate(0.000000,512.000000) scale(0.100000,-0.100000)"
fill="#000000" stroke="none">
<path d="M2197 4816 c-91 -34 -149 -114 -149 -209 -1 -105 60 -187 165 -221
13 -4 17 -17 18 -58 1 -29 3 -66 4 -83 2 -16 5 -84 9 -150 3 -66 8 -169 12
-230 10 -180 11 -175 -20 -175 -86 0 -343 -111 -438 -189 -47 -39 -140 -131
-176 -174 l-22 -27 -88 43 c-48 24 -133 66 -190 92 l-102 49 7 45 c13 76 8
203 -10 261 -45 152 -190 281 -352 315 -209 43 -422 -59 -517 -250 -22 -44
-29 -65 -45 -135 -16 -70 3 -191 42 -276 110 -241 414 -340 649 -213 54 29 91
60 138 117 l27 32 158 -75 c191 -90 209 -101 206 -117 -1 -7 -18 -51 -37 -98
-56 -137 -76 -243 -72 -395 2 -71 6 -141 10 -155 3 -14 8 -34 10 -45 3 -11 11
-42 20 -68 l14 -48 -76 -35 c-42 -19 -198 -90 -347 -158 l-270 -123 -39 38
c-22 22 -64 51 -95 67 -48 23 -69 27 -141 27 -73 0 -93 -4 -142 -28 -191 -94
-242 -350 -101 -507 160 -178 441 -137 542 79 20 45 26 72 26 136 l1 80 344
156 344 156 33 -55 c106 -175 266 -320 441 -399 31 -14 58 -27 59 -27 4 -3
-138 -540 -144 -546 -2 -3 -35 -3 -73 -2 -267 13 -494 -206 -491 -473 3 -261
214 -467 476 -466 202 2 377 132 443 328 25 76 24 222 -2 293 -38 102 -104
188 -187 241 -41 26 -49 36 -45 53 3 12 36 137 73 279 l68 258 25 -6 c112 -29
376 -26 440 4 29 14 53 6 61 -19 4 -14 70 -211 147 -439 l139 -414 -39 -39
c-68 -68 -99 -172 -76 -258 23 -85 114 -177 194 -194 136 -30 271 41 319 167
28 74 17 169 -26 236 -50 76 -127 121 -212 124 l-44 2 -147 435 c-80 239 -146
440 -146 445 0 6 30 25 66 44 72 37 190 125 235 173 31 35 32 35 89 -12 24
-19 85 -69 135 -110 50 -41 111 -91 135 -110 92 -74 160 -132 160 -136 0 -3
-9 -30 -19 -62 -36 -107 -10 -227 66 -312 102 -113 256 -145 388 -79 61 31
120 92 152 158 32 69 36 168 9 248 -23 69 -92 145 -164 180 -49 24 -69 28
-143 28 -77 0 -92 -3 -149 -33 -67 -34 -68 -34 -110 8 -3 3 -39 32 -80 65 -41
33 -86 70 -100 82 -14 11 -59 49 -100 83 -41 34 -94 77 -117 97 l-42 34 33 52
c92 144 146 333 147 511 l0 85 32 10 c35 11 189 51 513 134 l211 54 26 -47
c32 -57 109 -130 168 -160 234 -120 505 -4 588 250 27 86 15 215 -31 307 -31
62 -116 146 -180 177 -274 134 -589 -56 -599 -361 -2 -47 -4 -52 -28 -56 -14
-2 -89 -21 -166 -41 -263 -69 -490 -128 -505 -131 -8 -2 -22 -6 -30 -9 -12 -5
-20 8 -34 61 -34 128 -118 286 -207 386 l-40 46 38 43 c21 24 40 45 43 48 3 3
73 82 155 175 82 94 161 184 176 200 15 17 45 49 66 73 l38 43 40 -16 c89 -38
225 0 291 81 114 139 67 344 -96 418 -55 25 -158 26 -211 3 -53 -22 -111 -78
-138 -133 -39 -77 -35 -157 13 -264 4 -9 -3 -25 -16 -40 -13 -14 -75 -84 -138
-155 -63 -72 -117 -132 -120 -135 -3 -3 -37 -41 -75 -85 -39 -44 -90 -101
-113 -127 l-44 -46 -71 47 c-154 101 -310 152 -512 166 -22 2 -42 4 -45 4 -3
1 -6 16 -6 34 -1 17 -4 82 -7 142 -4 61 -10 162 -14 225 -3 63 -7 153 -7 200
-1 78 1 85 22 96 109 54 151 206 86 311 -56 90 -173 134 -267 99z m123 -121
c95 -49 57 -195 -51 -195 -75 0 -126 84 -90 151 30 55 86 73 141 44z m1502
-336 c14 -6 37 -29 52 -52 69 -105 -17 -240 -141 -223 -126 17 -173 167 -80
254 43 40 109 49 169 21z m-2908 -397 c74 -35 137 -96 174 -171 23 -49 27 -68
27 -146 0 -78 -4 -97 -29 -147 -96 -194 -322 -261 -504 -148 -188 116 -218
383 -60 542 105 105 258 132 392 70z m1611 -387 c98 -12 239 -63 326 -117 82
-52 98 -65 174 -143 88 -90 147 -181 189 -291 44 -116 55 -186 51 -329 -3
-131 -7 -162 -26 -212 -6 -16 -11 -30 -11 -33 -7 -61 -91 -211 -170 -302 -13
-14 -30 -35 -38 -45 -94 -111 -301 -219 -476 -247 -442 -71 -848 187 -981 621
-23 78 -26 104 -26 233 0 174 19 258 89 396 79 156 203 284 356 368 54 30 187
86 203 86 3 0 15 2 28 5 77 19 203 23 312 10z m2129 -164 c57 -26 114 -85 144
-150 65 -141 0 -312 -147 -383 -68 -33 -178 -31 -247 5 -172 89 -217 310 -92
452 41 46 97 82 153 96 44 11 143 1 189 -20z m-4076 -1347 c138 -57 172 -237
64 -339 -75 -72 -204 -73 -280 -2 -63 59 -83 167 -45 242 50 97 164 140 261
99z m3418 -393 c124 -56 158 -227 66 -324 -87 -92 -225 -90 -307 5 -32 38 -38
53 -49 120 -7 40 13 102 45 141 59 72 161 96 245 58z m-2044 -584 c162 -74
242 -248 192 -417 -53 -177 -230 -283 -409 -243 -75 17 -130 49 -182 106 -51
56 -69 90 -86 164 -39 174 65 352 239 407 69 22 178 15 246 -17z m1254 -319
c63 -43 83 -131 44 -196 -78 -127 -275 -74 -272 74 1 119 130 187 228 122z"/>
</g>
</svg>
